# xmcd CD database file
#
# Track frame offsets:
#	183
#	22545
#	32843
#	53255
#	68400
#	90924
#	115376
#	141947
#	170980
#	198096
#
# Disc length: 2870 seconds
#
# Revision: 0
# Processed by: cddbd v1.5.2PL0 Copyright (c) Steve Scherf et al.
# Submitted via: CDex 1.70beta2
#
DISCID=730b340a
DTITLE=Henri Renaud Al Cohn - Quartet
DYEAR=1954
DGENRE=Jazz
TTITLE0=You Stepped Out Of A Dream
TTITLE1=NY'S Idea N°1
TTITLE2=Lazy Things
TTITLE3=NY'S Idea N°2
TTITLE4=Mountain Greenery
TTITLE5=Once In A While
TTITLE6=The Things We Did last Summer
TTITLE7=Lazy Things
TTITLE8=The Things We Did last Summer
TTITLE9=NY'S Idea
EXTD=YEAR: 1954
EXTT0=
EXTT1=
EXTT2=
EXTT3=
EXTT4=
EXTT5=
EXTT6=
EXTT7=
EXTT8=
EXTT9=
PLAYORDER=
